<svg width="59" height="72" viewBox="0 0 59 72" fill="none" xmlns="http://www.w3.org/2000/svg">
<path d="M0 8.657C0 3.88213 3.88213 0 8.657 0H27.0531V17.314C27.0531 19.7082 28.9874 21.6425 31.3816 21.6425H48.6956V53.5652H34.2222C29.4473 53.5652 25.5652 57.4473 25.5652 62.2222V69.256H8.657C3.88213 69.256 0 65.3739 0 60.599V8.657ZM48.6956 17.314H31.3816V0L48.6956 17.314Z" fill="#00FF89"/>
<path d="M30.2765 69V58.8182H32.4292V63.3075H32.5635L36.2275 58.8182H38.8078L35.0294 63.3771L38.8525 69H36.2773L33.4882 64.8139L32.4292 66.1065V69H30.2765ZM48.7112 63.9091C48.7112 65.0194 48.5007 65.964 48.0798 66.7429C47.6622 67.5218 47.0921 68.1167 46.3696 68.5277C45.6504 68.9354 44.8416 69.1392 43.9434 69.1392C43.0386 69.1392 42.2266 68.9337 41.5074 68.5227C40.7881 68.1117 40.2197 67.5168 39.8021 66.7379C39.3845 65.959 39.1757 65.0161 39.1757 63.9091C39.1757 62.7988 39.3845 61.8542 39.8021 61.0753C40.2197 60.2964 40.7881 59.7031 41.5074 59.2955C42.2266 58.8845 43.0386 58.679 43.9434 58.679C44.8416 58.679 45.6504 58.8845 46.3696 59.2955C47.0921 59.7031 47.6622 60.2964 48.0798 61.0753C48.5007 61.8542 48.7112 62.7988 48.7112 63.9091ZM46.5287 63.9091C46.5287 63.1899 46.421 62.5833 46.2055 62.0895C45.9934 61.5956 45.6934 61.2211 45.3057 60.9659C44.9179 60.7107 44.4638 60.5831 43.9434 60.5831C43.4231 60.5831 42.969 60.7107 42.5812 60.9659C42.1934 61.2211 41.8918 61.5956 41.6764 62.0895C41.4643 62.5833 41.3582 63.1899 41.3582 63.9091C41.3582 64.6283 41.4643 65.2348 41.6764 65.7287C41.8918 66.2225 42.1934 66.5971 42.5812 66.8523C42.969 67.1075 43.4231 67.2351 43.9434 67.2351C44.4638 67.2351 44.9179 67.1075 45.3057 66.8523C45.6934 66.5971 45.9934 66.2225 46.2055 65.7287C46.421 65.2348 46.5287 64.6283 46.5287 63.9091ZM50.3058 69V58.8182H54.3229C55.0918 58.8182 55.7481 58.9557 56.2916 59.2308C56.8385 59.5026 57.2545 59.8887 57.5395 60.3892C57.8279 60.8864 57.972 61.4714 57.972 62.1442C57.972 62.8203 57.8262 63.402 57.5345 63.8892C57.2429 64.3731 56.8203 64.7443 56.2668 65.0028C55.7166 65.2614 55.0504 65.3906 54.2682 65.3906H51.5786V63.6605H53.9202C54.3312 63.6605 54.6726 63.6042 54.9443 63.4915C55.2161 63.3788 55.4183 63.2098 55.5509 62.9844C55.6868 62.759 55.7547 62.4789 55.7547 62.1442C55.7547 61.8061 55.6868 61.5211 55.5509 61.2891C55.4183 61.0571 55.2145 60.8814 54.9394 60.7621C54.6676 60.6394 54.3245 60.5781 53.9102 60.5781H52.4585V69H50.3058ZM55.8044 64.3665L58.335 69H55.9585L53.4827 64.3665H55.8044Z" fill="#00FF89"/>
</svg>
