<svg width="59" height="72" viewBox="0 0 59 72" fill="none" xmlns="http://www.w3.org/2000/svg">
<path d="M0 8.657C0 3.88213 3.88213 0 8.657 0H27.0531V17.314C27.0531 19.7082 28.9874 21.6425 31.3816 21.6425H48.6956V53.5652H34.2222C29.4473 53.5652 25.5652 57.4473 25.5652 62.2222V69.256H8.657C3.88213 69.256 0 65.3739 0 60.599V8.657ZM48.6956 17.314H31.3816V0L48.6956 17.314Z" fill="#00FF89"/>
<path d="M30.1262 69V58.8182H36.9869V60.593H32.2789V63.0192H36.634V64.794H32.2789V67.2251H37.0068V69H30.1262ZM47.2148 58.8182V69H45.3554L40.9257 62.5916H40.8511V69H38.6984V58.8182H40.5876L44.9825 65.2216H45.072V58.8182H47.2148ZM55.7448 62.1094C55.6752 61.8674 55.5774 61.6536 55.4514 61.468C55.3255 61.2791 55.1714 61.12 54.9891 60.9908C54.8101 60.8582 54.6046 60.7571 54.3726 60.6875C54.1439 60.6179 53.8904 60.5831 53.6119 60.5831C53.0916 60.5831 52.6342 60.7124 52.2398 60.9709C51.8487 61.2294 51.5438 61.6056 51.325 62.0994C51.1063 62.59 50.9969 63.1899 50.9969 63.8991C50.9969 64.6084 51.1046 65.2116 51.32 65.7088C51.5355 66.206 51.8404 66.5855 52.2348 66.8473C52.6292 67.1058 53.0949 67.2351 53.6318 67.2351C54.1191 67.2351 54.535 67.1489 54.8797 66.9766C55.2277 66.8009 55.4929 66.554 55.6752 66.2358C55.8608 65.9176 55.9536 65.5414 55.9536 65.1072L56.3911 65.1719H53.7661V63.5511H58.0267V64.8338C58.0267 65.7287 57.8378 66.4976 57.46 67.1406C57.0821 67.7803 56.5618 68.2741 55.8989 68.6222C55.236 68.9669 54.477 69.1392 53.6219 69.1392C52.6673 69.1392 51.8288 68.9287 51.1063 68.5078C50.3837 68.0836 49.8203 67.482 49.4159 66.7031C49.0149 65.9209 48.8144 64.9929 48.8144 63.919C48.8144 63.0937 48.9337 62.358 49.1723 61.7116C49.4143 61.062 49.7523 60.5118 50.1865 60.0611C50.6207 59.6103 51.1262 59.2673 51.7029 59.032C52.2796 58.7966 52.9043 58.679 53.5771 58.679C54.1539 58.679 54.6908 58.7635 55.1879 58.9325C55.6851 59.0982 56.1259 59.3336 56.5104 59.6385C56.8982 59.9434 57.2147 60.3063 57.46 60.7273C57.7052 61.1449 57.8627 61.6056 57.9323 62.1094H55.7448Z" fill="#00FF89"/>
</svg>
