<svg xmlns="http://www.w3.org/2000/svg" xmlns:xlink="http://www.w3.org/1999/xlink" viewBox="0,0,256,256" width="96px" height="96px" fill-rule="nonzero"><g fill="none" fill-rule="nonzero" stroke="none" stroke-width="1" stroke-linecap="butt" stroke-linejoin="miter" stroke-miterlimit="10" stroke-dasharray="" stroke-dashoffset="0" font-family="none" font-weight="none" font-size="none" text-anchor="none" style="mix-blend-mode: normal"><g transform="scale(5.33333,5.33333)"><path d="M24,4c-11.598,0 -21,7.611 -21,17c0,5.99 3.836,11.245 9.618,14.273l-2.219,7.397c-0.135,0.449 0.366,0.82 0.756,0.56l8.422,-5.615c1.427,0.248 2.905,0.385 4.423,0.385c11.598,0 21,-7.611 21,-17c0,-9.389 -9.402,-17 -21,-17z" fill="#00ff89"></path><path d="M15,18h-6c-0.552,0 -1,-0.448 -1,-1v0c0,-0.552 0.448,-1 1,-1h6c0.552,0 1,0.448 1,1v0c0,0.552 -0.448,1 -1,1z" fill="#000000"></path><path d="M25,26v-9c0,-0.552 0.448,-1 1,-1v0c0.552,0 1,0.448 1,1v9c0,0.552 -0.448,1 -1,1v0c-0.552,0 -1,-0.448 -1,-1z" fill="#000000"></path><path d="M32,26v-9c0,-0.552 0.448,-1 1,-1v0c0.552,0 1,0.448 1,1v9c0,0.552 -0.448,1 -1,1v0c-0.552,0 -1,-0.448 -1,-1z" fill="#000000"></path><path d="M32.621,21.207l4.914,-4.914c0.391,-0.391 1.024,-0.391 1.414,0v0c0.391,0.391 0.391,1.024 0,1.414l-4.914,4.914c-0.391,0.391 -1.024,0.391 -1.414,0v0c-0.39,-0.39 -0.39,-1.023 0,-1.414z" fill="#000000"></path><path d="M36.078,20.665l3.708,4.717c0.341,0.434 0.266,1.063 -0.168,1.404v0c-0.434,0.341 -1.063,0.266 -1.404,-0.168l-3.708,-4.717c-0.341,-0.434 -0.266,-1.063 0.168,-1.404v0c0.434,-0.341 1.063,-0.266 1.404,0.168z" fill="#000000"></path><path d="M30,27h-4c-0.552,0 -1,-0.448 -1,-1v0c0,-0.552 0.448,-1 1,-1h4c0.552,0 1,0.448 1,1v0c0,0.552 -0.448,1 -1,1z" fill="#000000"></path><path d="M23.933,25.642l-3.221,-9c-0.145,-0.379 -0.497,-0.611 -0.878,-0.629c-0.111,-0.005 -0.54,-0.003 -0.641,-0.001c-0.392,0.007 -0.757,0.241 -0.906,0.63l-3.221,9c-0.198,0.516 0.06,1.094 0.576,1.292c0.516,0.198 1.094,-0.06 1.292,-0.576l0.486,-1.358h4.16l0.486,1.358c0.198,0.516 0.776,0.773 1.292,0.576c0.516,-0.197 0.773,-0.777 0.575,-1.292zM18.136,23l1.364,-3.812l1.364,3.812z" fill="#000000"></path><path d="M13,18h-2v8c0,0.552 0.448,1 1,1v0c0.552,0 1,-0.448 1,-1z" fill="#000000"></path></g></g></svg>